<svg width="48" height="48" viewBox="0 0 48 48" fill="none" xmlns="http://www.w3.org/2000/svg">
<rect y="-6.10352e-05" width="48" height="48" fill="#323238"/>
<g clip-path="url(#clip0_61385_216)">
<path d="M22.724 35.9998C21.617 35.9998 20.324 35.9938 19.048 35.9208C17.1811 35.9628 15.3729 35.2668 14.016 33.9838C12.7328 32.6275 12.0367 30.8195 12.079 28.9528C12 27.5098 12 26.0508 12 24.6398C12 24.4265 12 24.2132 12 23.9998C12 23.7865 12 23.5731 12 23.3598C12 21.9488 12 20.4898 12.079 19.0478C12.037 17.1809 12.733 15.3727 14.016 14.0158C15.3729 12.7328 17.1811 12.0368 19.048 12.0788C20.328 12.0058 21.617 11.9998 22.724 11.9998H25.277C26.384 11.9998 27.677 12.0058 28.954 12.0788C30.8207 12.0365 32.6286 12.7326 33.985 14.0158C35.268 15.3727 35.964 17.1809 35.922 19.0478C36 20.4898 36 21.9488 36 23.3608C36 23.5742 36 23.7875 36 24.0008C36 24.2142 36 24.4272 36 24.6398C36 26.0508 36 27.5098 35.921 28.9538C35.9633 30.8205 35.2672 32.6285 33.984 33.9848C32.6276 35.268 30.8197 35.9641 28.953 35.9218C27.672 35.9948 26.383 36.0008 25.276 36.0008L22.724 35.9998Z" fill="white"/>
<path d="M29.6061 18.7884C29.8426 18.9464 30.1206 19.0308 30.405 19.0308L30.406 19.0318C30.7873 19.0313 31.1528 18.8794 31.4223 18.6096C31.6917 18.3398 31.843 17.9741 31.843 17.5928C31.843 17.3084 31.7587 17.0304 31.6007 16.7939C31.4427 16.5574 31.2181 16.3731 30.9553 16.2642C30.6926 16.1554 30.4034 16.1269 30.1245 16.1824C29.8456 16.2379 29.5893 16.3749 29.3882 16.576C29.1871 16.7771 29.0502 17.0333 28.9947 17.3122C28.9392 17.5912 28.9677 17.8803 29.0765 18.1431C29.1853 18.4058 29.3697 18.6304 29.6061 18.7884Z" fill="#323238"/>
<path fill-rule="evenodd" clip-rule="evenodd" d="M24.0003 30.1555C22.7828 30.1553 21.5927 29.7941 20.5805 29.1175C19.5683 28.441 18.7794 27.4795 18.3137 26.3546C17.8479 25.2297 17.7261 23.992 17.9637 22.7979C18.2014 21.6038 18.7878 20.507 19.6487 19.6462C20.5097 18.7854 21.6066 18.1992 22.8007 17.9617C23.9949 17.7243 25.2326 17.8462 26.3574 18.3122C27.4822 18.7782 28.4436 19.5672 29.1199 20.5795C29.7963 21.5919 30.1573 22.782 30.1573 23.9995C30.1558 25.632 29.5066 27.1971 28.3522 28.3514C27.1979 29.5057 25.6328 30.1539 24.0003 30.1555ZM24.0003 20C23.2092 20 22.4358 20.2346 21.778 20.6742C21.1202 21.1137 20.6075 21.7384 20.3048 22.4693C20.002 23.2002 19.9228 24.0045 20.0771 24.7804C20.2315 25.5563 20.6124 26.269 21.1719 26.8285C21.7313 27.3879 22.444 27.7688 23.2199 27.9232C23.9958 28.0775 24.8001 27.9983 25.531 27.6955C26.2619 27.3928 26.8866 26.8801 27.3262 26.2223C27.7657 25.5645 28.0003 24.7912 28.0003 24C28.0003 22.9392 27.5789 21.9217 26.8287 21.1716C26.0786 20.4215 25.0612 20 24.0003 20Z" fill="#323238"/>
</g>
<defs>
<clipPath id="clip0_61385_216">
<rect width="24" height="24" fill="white" transform="translate(12 11.9998)"/>
</clipPath>
</defs>
</svg>
